<?xml version="1.0"?>
<svg xmlns="http://www.w3.org/2000/svg" height="512px" viewBox="-6 0 380 380.25472" width="512px"><path d="m184.449219 380.253906c-1.203125 0-2.402344-.3125-3.472657-.945312l-88.746093-52.394532c-2.078125-1.226562-3.355469-3.464843-3.355469-5.878906v-104.792968c0-2.414063 1.277344-4.652344 3.355469-5.878907l88.746093-52.398437c2.140626-1.269532 4.800782-1.269532 6.941407 0l88.746093 52.398437c2.078126 1.226563 3.355469 3.464844 3.355469 5.878907v104.792968c0 2.414063-1.277343 4.652344-3.355469 5.878906l-88.746093 52.394532c-1.070313.632812-2.269531.945312-3.46875.945312zm-81.921875-63.117187 81.921875 48.367187 81.917969-48.367187v-96.996094l-81.917969-48.371094-81.921875 48.371094zm81.921875 28.984375c-1.175781 0-2.351563-.300782-3.40625-.90625l-61.4375-35.324219c-2.117188-1.222656-3.425781-3.480469-3.425781-5.921875v-70.660156c0-2.441406 1.308593-4.699219 3.425781-5.921875l61.4375-35.332031c2.105469-1.210938 4.703125-1.210938 6.808593 0l61.4375 35.332031c2.117188 1.222656 3.425782 3.480469 3.425782 5.921875v70.660156c0 2.441406-1.308594 4.699219-3.425782 5.921875l-61.4375 35.324219c-1.054687.609375-2.230468.90625-3.402343.90625zm-54.613281-46.097656 54.613281 31.398437 54.613281-31.398437v-62.765626l-54.613281-31.40625-54.613281 31.40625zm116.050781 3.945312h.066406zm0 0" fill="#FFFFFF"/><path d="m95.699219 223.242188c-1.199219 0-2.398438-.316407-3.46875-.949219l-88.746094-52.390625c-2.082031-1.226563-3.355469-3.46875-3.355469-5.878906v-104.792969c0-2.414063 1.273438-4.65625 3.355469-5.882813l88.746094-52.398437c2.140625-1.265625 4.800781-1.265625 6.941406 0l88.746094 52.398437c2.078125 1.230469 3.355469 3.46875 3.355469 5.882813v104.792969c0 2.410156-1.277344 4.652343-3.355469 5.878906l-88.746094 52.390625c-1.070313.636719-2.269531.949219-3.472656.949219zm-81.917969-63.121094 81.917969 48.367187 81.921875-48.367187v-96.992188l-81.921875-48.375-81.917969 48.375zm81.917969 28.988281c-1.171875 0-2.347657-.300781-3.402344-.90625l-61.4375-35.328125c-2.117187-1.21875-3.425781-3.480469-3.425781-5.917969v-70.660156c0-2.441406 1.308594-4.703125 3.425781-5.921875l61.4375-35.332031c2.105469-1.214844 4.699219-1.214844 6.808594 0l61.4375 35.332031c2.117187 1.21875 3.425781 3.480469 3.425781 5.921875v70.660156c0 2.4375-1.308594 4.699219-3.425781 5.917969l-61.4375 35.328125c-1.054688.605469-2.230469.90625-3.40625.90625zm-54.613281-46.101563 54.613281 31.402344 54.613281-31.402344v-62.765624l-54.613281-31.40625-54.613281 31.40625zm116.054687 3.949219h.066406zm0 0" fill="#FFFFFF"/><path d="m273.195312 223.242188c-1.199218 0-2.402343-.316407-3.472656-.949219l-88.746094-52.390625c-2.078124-1.226563-3.355468-3.46875-3.355468-5.878906v-104.792969c0-2.414063 1.277344-4.65625 3.355468-5.882813l88.746094-52.398437c2.140625-1.265625 4.800782-1.265625 6.941406 0l88.746094 52.398437c2.082032 1.230469 3.355469 3.46875 3.355469 5.882813v104.792969c0 2.410156-1.273437 4.652343-3.355469 5.878906l-88.746094 52.390625c-1.070312.636719-2.269531.949219-3.46875.949219zm-81.921874-63.121094 81.921874 48.367187 81.917969-48.367187v-96.992188l-81.917969-48.375-81.921874 48.375zm81.921874 28.988281c-1.175781 0-2.351562-.300781-3.40625-.90625l-61.4375-35.328125c-2.117187-1.21875-3.425781-3.480469-3.425781-5.917969v-70.660156c0-2.441406 1.308594-4.703125 3.425781-5.921875l61.4375-35.332031c2.109376-1.214844 4.703126-1.214844 6.808594 0l61.441406 35.332031c2.113282 1.21875 3.421876 3.480469 3.421876 5.921875v70.660156c0 2.4375-1.308594 4.699219-3.421876 5.917969l-61.441406 35.328125c-1.054687.605469-2.230468.90625-3.402344.90625zm-54.613281-46.101563 54.613281 31.402344 54.613282-31.402344v-62.765624l-54.613282-31.40625-54.613281 31.40625zm116.050781 3.949219h.066407zm0 0" fill="#FFFFFF"/></svg>
